<svg viewBox="0 0 200 200" xmlns="http://www.w3.org/2000/svg">
  <path fill="#d6f5e3" d="M42.3,-70.1C53.6,-61.6,60.1,-45.9,68.4,-31.7C76.7,-17.4,86.8,-4.6,87.2,8.7C87.6,22,78.2,35.7,67.7,46.4C57.3,57.1,45.7,64.8,33.2,71.5C20.7,78.3,7.3,84.2,-6,89.5C-19.2,94.8,-32.4,99.6,-44.9,95.6C-57.3,91.7,-69.1,78.9,-75.7,64.2C-82.3,49.4,-83.8,32.6,-83.5,16.4C-83.2,0.2,-81.2,-15.3,-72.9,-27.8C-64.7,-40.4,-50.2,-50,-36.5,-59.7C-22.9,-69.5,-11.4,-79.3,2.1,-82.3C15.5,-85.4,31,-81.5,42.3,-70.1Z" transform="translate(100 100)" />
</svg>